<?xml version="1.0" standalone="no"?><!DOCTYPE svg PUBLIC "-//W3C//DTD SVG 1.1//EN" "http://www.w3.org/Graphics/SVG/1.1/DTD/svg11.dtd"><svg t="1608799675120" class="icon" viewBox="0 0 1024 1024" version="1.1" xmlns="http://www.w3.org/2000/svg" p-id="4268" xmlns:xlink="http://www.w3.org/1999/xlink" width="200" height="200"><defs><style type="text/css"></style></defs><path d="M512.268258 65.585998c-246.530085 0-446.414002 199.856272-446.414002 446.414002 0 246.530085 199.883917 446.414002 446.414002 446.414002s446.414002-199.883917 446.414002-446.414002c0-246.55773-199.883917-446.414002-446.414002-446.414002z m222.878334 608.885149l-60.430736 60.407187-162.46398-162.48753-162.486506 162.48753-60.375446-60.407187 162.462956-162.486505-162.462956-162.48753 60.375446-60.407186 162.486506 162.486505 162.462956-162.486505 60.430736 60.407186-162.486506 162.486506 162.48753 162.487529z" p-id="4269" fill="#d81e06"></path><path d="M512.268258 65.585998c-246.530085 0-446.414002 199.856272-446.414002 446.414002 0 246.530085 199.883917 446.414002 446.414002 446.414002s446.414002-199.883917 446.414002-446.414002c0-246.55773-199.883917-446.414002-446.414002-446.414002z m222.878334 608.885149l-60.430736 60.407187-162.46398-162.48753-162.486506 162.48753-60.375446-60.407187 162.462956-162.486505-162.462956-162.48753 60.375446-60.407186 162.486506 162.486505 162.462956-162.486505 60.430736 60.407186-162.486506 162.486506 162.48753 162.487529z" p-id="4270" fill="#d81e06"></path></svg>