<?xml version="1.0" standalone="no"?><!DOCTYPE svg PUBLIC "-//W3C//DTD SVG 1.1//EN" "http://www.w3.org/Graphics/SVG/1.1/DTD/svg11.dtd"><svg t="1608999479674" class="icon" viewBox="0 0 1024 1024" version="1.1" xmlns="http://www.w3.org/2000/svg" p-id="12284" xmlns:xlink="http://www.w3.org/1999/xlink" width="200" height="200"><defs><style type="text/css"></style></defs><path d="M673.28 381.44c11.52-11.52 11.52-30.72 0-42.24l-8.96-8.96c-11.52-11.52-30.72-11.52-42.24 0l-19.2 19.2 51.2 51.2 19.2-19.2z" fill="#004e7e" p-id="12285"></path><path d="M512 0C229.12 0 0 229.12 0 512s229.12 512 512 512 512-229.12 512-512S794.88 0 512 0zM305.92 668.16l24.32-81.92c3.84-14.08 11.52-26.88 23.04-38.4l244.48-243.2c25.6-25.6 67.84-25.6 93.44 0l8.96 8.96c25.6 25.6 25.6 66.56 0 92.16L455.68 647.68c-11.52 11.52-26.88 20.48-43.52 24.32l-85.76 19.2c-10.24 2.56-19.2-3.84-21.76-14.08 0-2.56 0-5.12 1.28-8.96z m417.28 83.2H293.12c-10.24 0-17.92-7.68-17.92-17.92s7.68-17.92 17.92-17.92H723.2c10.24 0 17.92 7.68 17.92 17.92s-7.68 17.92-17.92 17.92z" fill="#004e7e" p-id="12286"></path><path d="M430.08 622.08l198.4-197.12-51.2-51.2L377.6 573.44c-6.4 6.4-11.52 14.08-14.08 23.04l-15.36 52.48 55.04-12.8c11.52-1.28 20.48-6.4 26.88-14.08z" fill="#004e7e" p-id="12287"></path></svg>