<?xml version="1.0" standalone="no"?><!DOCTYPE svg PUBLIC "-//W3C//DTD SVG 1.1//EN" "http://www.w3.org/Graphics/SVG/1.1/DTD/svg11.dtd"><svg t="1588038890026" class="icon" viewBox="0 0 1260 1024" version="1.1" xmlns="http://www.w3.org/2000/svg" p-id="2815" xmlns:xlink="http://www.w3.org/1999/xlink" width="157.5" height="128"><defs><style type="text/css"></style></defs><path d="M270.099692 1024H90.033231C40.329846 1024 0 982.252308 0 930.894769V93.105231C0 41.668923 40.329846 0 90.033231 0h1080.241231C1219.977846 0 1260.307692 41.747692 1260.307692 93.105231V945.230769a78.769231 78.769231 0 0 1-78.76923 78.769231H270.099692zM1170.274462 139.657846a45.764923 45.764923 0 0 0-44.977231-46.552615H135.010462a45.764923 45.764923 0 0 0-44.977231 46.473846v744.763077c0 25.757538 20.164923 46.552615 44.977231 46.552615h990.286769a45.764923 45.764923 0 0 0 44.977231-46.473846V139.579077zM672.925538 512c0.708923 7.798154 2.205538 15.281231 2.205539 23.236923 0 141.390769-110.828308 256-247.492923 256-136.743385 0-247.571692-114.609231-247.571692-256 0-141.312 110.828308-256 247.571692-256 7.640615 0 14.966154 1.654154 22.449231 2.363077V512h222.838153z m92.23877-93.105231h315.076923V325.789538h-315.076923v93.105231z m0 186.210462h315.076923V512h-315.076923v93.105231z m0 186.131692h315.076923V698.210462h-315.076923v93.026461zM495.143385 465.526154V281.6a150.449231 150.449231 0 0 1 22.44923-2.363077c87.04 0 157.538462 72.940308 157.538462 162.973539a166.203077 166.203077 0 0 1-2.205539 23.236923H495.143385z" p-id="2816"></path></svg>