<?xml version="1.0" standalone="no"?><!DOCTYPE svg PUBLIC "-//W3C//DTD SVG 1.1//EN" "http://www.w3.org/Graphics/SVG/1.1/DTD/svg11.dtd"><svg t="1592876417638" class="icon" viewBox="0 0 1024 1024" version="1.1" xmlns="http://www.w3.org/2000/svg" p-id="3936" xmlns:xlink="http://www.w3.org/1999/xlink" width="48" height="48"><defs><style type="text/css"></style></defs><path d="M594.861498 731.323451a16.977761 16.977761 0 0 1-16.80713-16.721815v-39.543679a16.977761 16.977761 0 0 1 16.80713-16.593842h411.689374c9.384692 0 16.849788 7.379781 16.977761 16.721815v39.543679a16.935103 16.935103 0 0 1-16.977761 16.721815l-411.646716-0.127973z m0 146.315879a16.977761 16.977761 0 0 1-16.80713-16.721815v-39.543679a16.977761 16.977761 0 0 1 16.80713-16.721815h411.689374c9.384692 0 16.849788 7.507754 16.977761 16.849788v39.415706a16.977761 16.977761 0 0 1-16.977761 16.849788l-411.646716-0.170631z m0 146.145249a16.977761 16.977761 0 0 1-16.80713-16.679157v-39.586337a16.892446 16.892446 0 0 1 16.80713-16.679158h411.689374c9.384692 0 16.849788 7.465096 16.977761 16.849788v39.415707a16.977761 16.977761 0 0 1-16.977761 16.80713h-411.646716V1023.784579z m-91.244801-309.865466a11.773523 11.773523 0 0 1-12.413388 11.773523c-114.237296-6.398654-205.268808-99.818996-205.268808-213.800347 0-118.119146 97.558139-214.141608 217.682196-214.141607 119.868111 0 217.554223 96.022462 217.554223 214.141607 0 22.181999-3.497931 43.937422-10.323161 64.967663a11.858838 11.858838 0 0 1-11.218973 8.275592h-55.454998a11.81618 11.81618 0 0 1-10.664422-16.849787 135.651457 135.651457 0 0 0 12.157442-56.265495c0-76.954474-63.901221-139.746595-142.178084-139.746595-78.14889 0-142.05011 62.664148-142.05011 139.746595 0.127973 73.499201 58.014459 134.030464 131.215057 139.490649a11.944153 11.944153 0 0 1 10.963026 11.944154v50.464048z m-5.204238 240.376087a17.788257 17.788257 0 0 1 5.204238 12.584019v38.98913a18.001546 18.001546 0 0 1-17.788257 17.660284H414.888701a63.133382 63.133382 0 0 1-63.55996-59.208875c0-0.255946 0-0.511892-0.170631-0.767839l-9.384691-68.039017a12.029469 12.029469 0 0 0-6.910546-9.214061 422.823031 422.823031 0 0 1-76.442582-43.297556 11.944153 11.944153 0 0 0-11.218973-1.322388l-64.541086 25.893218-0.810496 0.426577a64.455771 64.455771 0 0 1-84.163624-24.57083l-88.983943-151.434802a62.194913 62.194913 0 0 1 20.305061-83.86502l0.810496-0.55455 55.156394-42.103141a11.517577 11.517577 0 0 0 4.564373-10.664423 370.695333 370.695333 0 0 1 0-86.08322 11.517577 11.517577 0 0 0-4.564373-10.664422l-55.028421-41.975168-0.810496-0.511892a61.981625 61.981625 0 0 1-20.475692-83.651732L97.686112 180.399374a64.28514 64.28514 0 0 1 83.907678-24.74146 1.919596 1.919596 0 0 0 0.810496 0.298603l64.669059 26.021192a11.602892 11.602892 0 0 0 11.218973-1.279731 407.807524 407.807524 0 0 1 76.186635-43.212241 11.64555 11.64555 0 0 0 6.910546-9.214061l9.640638-67.996359c0-0.255946 0-0.55455 0.127973-0.810496A63.133382 63.133382 0 0 1 414.632754 0.170631h177.71194c33.955522 0 61.853652 26.021191 63.474644 59.166217 0 0.255946 0 0.682523 0.127973 0.938469l9.470007 67.996359a12.029469 12.029469 0 0 0 6.953204 9.214061 413.353024 413.353024 0 0 1 76.442582 43.169583 11.944153 11.944153 0 0 0 11.218973 1.365047l64.83969-25.807903a64.583744 64.583744 0 0 1 84.718173 24.314883l88.68534 151.392145a61.938967 61.938967 0 0 1-20.177088 83.779705c-0.255946 0.127973-0.55455 0.426577-0.810496 0.511892l-55.028421 41.975168a11.517577 11.517577 0 0 0-4.564373 10.664422 385.540209 385.540209 0 0 1-0.810496 92.908451c-0.511892 3.711219-1.066442 7.593069-1.876939 11.346946-0.255946 1.066442-0.511892 2.004911-0.639865 2.94338a11.858838 11.858838 0 0 1-11.517577 9.086088h-52.08504a11.81618 11.81618 0 0 1-11.64555-13.906407 314.984389 314.984389 0 0 0 0-118.375092l-2.77275-14.844876a12.157442 12.157442 0 0 1 4.393743-11.602892l78.703439-59.891398a11.81618 11.81618 0 0 0 3.071354-15.356769l-68.678882-117.308649a11.944153 11.944153 0 0 0-14.844877-4.948292l-91.372773 38.477237a12.072126 12.072126 0 0 1-12.285415-1.876939l-11.944154-10.15253a337.934226 337.934226 0 0 0-104.170081-58.782298l-14.716903-5.332211a11.474919 11.474919 0 0 1-7.635727-9.512665l-13.650461-96.832958a11.688207 11.688207 0 0 0-11.602892-10.195188h-136.291322a11.81618 11.81618 0 0 0-11.602892 10.15253L410.366985 181.849736a11.602892 11.602892 0 0 1-7.763699 9.512665l-14.716904 5.332211A341.389499 341.389499 0 0 0 283.673644 255.775514l-12.029469 10.15253a11.602892 11.602892 0 0 1-12.029469 1.834281L167.218148 230.522161a11.730865 11.730865 0 0 0-14.58893 4.905634L84.590201 351.15811a11.688207 11.688207 0 0 0 3.071354 15.356769L166.364994 426.406277a11.81618 11.81618 0 0 1 4.393742 11.474919l-2.644777 15.100822a313.534027 313.534027 0 0 0-0.127973 117.991173l2.644777 15.100823a11.688207 11.688207 0 0 1-4.393742 11.346945L87.661555 657.355015a11.944153 11.944153 0 0 0-3.071354 15.356769l69.105459 117.308649c2.900723 5.118923 9.342034 7.251807 14.674245 4.99095l91.287459-38.477237a11.858838 11.858838 0 0 1 12.114784 1.706308l12.029469 10.024557a341.048238 341.048238 0 0 0 104.255396 58.952929l14.546273 5.204238a11.858838 11.858838 0 0 1 7.763699 9.470007l13.479831 97.131562a11.688207 11.688207 0 0 0 11.645549 10.15253h50.208102v-0.255946c4.820319 0.255946 9.384692 2.132885 12.711992 5.332212z" fill="#20a0ff" p-id="3937"></path></svg>