<?xml version="1.0" standalone="no"?><!DOCTYPE svg PUBLIC "-//W3C//DTD SVG 1.1//EN" "http://www.w3.org/Graphics/SVG/1.1/DTD/svg11.dtd"><svg t="1575507364463" class="icon" viewBox="0 0 1026 1024" version="1.1" xmlns="http://www.w3.org/2000/svg" p-id="3687" xmlns:xlink="http://www.w3.org/1999/xlink" width="200.390625" height="200"><defs><style type="text/css"></style></defs><path d="M801.52 887.644H10.101v-65.139c0-85.627 86.193-115.018 162.353-141.864 70.932-24.728 117.137-43.097 117.137-78.845V578.623c-16.814-19.924-38.857-52.564-51.433-95.095-13.706-10.032-24.162-25.292-31.51-44.085-10.032-26.847-13.705-66.693 4.663-98.768-3.673-39.988-7.347-120.811 45.781-178.179 37.869-40.976 89.867-64.573 147.093-66.269h1.978c56.802 1.554 109.366 25.293 147.093 66.27 24.727 26.846 36.737 58.356 43.096 88.311 0.989-1.554 2.684-2.684 3.674-4.239 30.52-33.064 72.062-51.432 117.137-53.128h1.978c45.78 0.99 87.181 19.923 117.137 53.128 41.542 45.216 39.987 107.247 36.738 139.321 14.13 26.282 11.02 57.792 3.108 79.41-5.793 14.696-14.13 26.847-24.727 35.75-9.467 30.944-25.717 55.106-38.857 70.932v15.825c0 21.054 34.618 34.194 83.507 51.009 58.357 19.923 130.843 44.65 130.843 115.583v57.226H800.954c0.565 3.109 0.565 6.782 0.565 10.456v65.563z m-728.398-63.02h665.236v-2.119c0-18.369-11.02-32.075-29.955-44.65-12.576-6.359-26.282-13.141-39.988-19.924-15.26-6.358-32.64-12.151-51.998-18.934-74.606-25.292-159.244-54.117-159.244-136.071 0-11.021 0-23.597 0.565-36.314V554.46l7.913-8.901c11.021-12.152 38.292-45.781 48.89-89.302l3.673-14.695 14.13-6.358c1.555-0.99 7.913-4.663 13.141-17.804 5.793-15.26 6.782-36.738-2.685-48.324l-10.032-12.152 3.674-13.706c3.108-26.847 10.032-96.225-28.401-137.625-18.37-19.923-51.01-44.086-101.453-45.781-50.444 1.554-83.084 25.716-101.453 45.78-38.857 42.108-31.51 111.91-28.401 138.757l2.12 14.13-8.478 10.456c-9.468 11.586-8.478 33.064-2.685 48.324 5.228 13.14 11.021 16.814 13.14 17.804l14.13 6.358 3.674 14.695c10.457 44.086 37.303 77.29 48.325 89.301l7.912 8.902v47.335c0 83.084-84.638 112.474-159.809 138.19-72.486 25.294-119.822 44.086-119.822 81.954v2.685h-2.12z m717.376-76.16h173.374c-5.228-21.053-38.292-33.629-87.182-50.444-56.237-19.499-126.604-43.096-126.604-110.92v-39.987L758 538.21c7.913-8.902 27.836-33.064 35.184-64.574l3.673-14.695 14.13-6.358c0.99-0.566 3.674-3.109 6.359-9.467 4.239-10.456 3.673-23.597-0.99-29.39l-10.032-12.576 3.674-13.706c2.12-20.489 6.783-69.378-19.923-98.203-13.14-14.13-36.314-30.945-72.063-32.64-35.748 0.989-58.921 18.369-72.062 32.64-27.271 29.39-22.043 80.4-19.923 99.898l1.554 14.13-8.478 10.456c-4.663 5.794-4.663 18.935-0.99 29.39 2.686 6.36 5.229 8.902 5.794 9.468l14.13 6.358 3.674 14.695c7.347 32.075 27.27 56.237 35.183 64.574l7.913 8.902v39.564c0 37.868-33.63 65.139-68.813 83.507 25.293 8.478 52.564 18.37 75.172 29.39 16.814 6.783 33.064 14.13 47.759 23.598 23.173 11.021 41.542 20.488 51.574 25.292zM519.91 578.623v24.162c0 12.151 5.793 22.608 17.38 31.51 54.117-16.815 84.073-39.988 85.627-48.325v-14.695c-12.576-15.825-28.966-39.988-38.292-70.932-4.663-4.24-8.902-8.478-13.14-14.13-13.283 41.542-35.326 73.052-51.575 92.41z" p-id="3688"></path></svg>