<?xml version="1.0" standalone="no"?><!DOCTYPE svg PUBLIC "-//W3C//DTD SVG 1.1//EN" "http://www.w3.org/Graphics/SVG/1.1/DTD/svg11.dtd"><svg t="1607871606921" class="icon" viewBox="0 0 1024 1024" version="1.1" xmlns="http://www.w3.org/2000/svg" p-id="4847" xmlns:xlink="http://www.w3.org/1999/xlink" width="200" height="200"><defs><style type="text/css"></style></defs><path d="M682.666667 682.666667H341.333333v-170.666667H85.333333v341.333333c0 46.933333 38.4 85.333333 85.333334 85.333334h682.666666c46.933333 0 85.333333-38.4 85.333334-85.333334v-341.333333h-256v170.666667z" p-id="4848"></path><path d="M426.666667 512h170.666666v85.333333h-170.666666zM853.333333 256h-128V170.666667c0-46.933333-38.4-85.333333-85.333333-85.333334H384c-46.933333 0-85.333333 38.4-85.333333 85.333334v85.333333H170.666667c-46.933333 0-85.333333 38.4-85.333334 85.333333v85.333334h853.333334V341.333333c0-46.933333-38.4-85.333333-85.333334-85.333333z" p-id="4849"></path></svg>