<?xml version="1.0" standalone="no"?><!DOCTYPE svg PUBLIC "-//W3C//DTD SVG 1.1//EN" "http://www.w3.org/Graphics/SVG/1.1/DTD/svg11.dtd"><svg t="1572502946556" class="icon" viewBox="0 0 1160 1024" version="1.1" xmlns="http://www.w3.org/2000/svg" p-id="2956" xmlns:xlink="http://www.w3.org/1999/xlink" width="226.5625" height="200"><defs><style type="text/css"></style></defs><path d="M69.495467 382.020267c-3.549867-14.7456 0.341333-52.565333 16.110933-56.388267l969.5232-256.887467c15.837867-3.8912 31.812267 17.339733 35.293867 34.6112 4.096 17.339733 2.048 44.6464-13.789867 48.469334L97.348267 409.6c-2.389333 0.682667-24.3712-12.834133-27.8528-27.579733z" p-id="2957"></path><path d="M580.266667 955.733333c-14.472533 0-34.133333-14.1312-34.133334-30.037333V26.282667C546.133333 10.376533 565.794133 0 580.266667 0c14.472533 0 34.133333 10.376533 34.133333 26.282667V925.696c0 15.906133-19.6608 30.037333-34.133333 30.037333z" p-id="2958"></path><path d="M862.4128 1024H335.6672c-15.701333 0-23.074133-27.648-23.074133-47.581867 0-19.933867 7.304533-47.650133 23.074133-47.650133h526.7456c15.7696 0 25.053867 27.716267 25.053867 47.650133 0 19.933867-9.284267 47.581867-25.053867 47.581867zM28.194133 709.632c-15.7696 0-28.194133-20.957867-28.194133-47.650133C0 635.357867 12.424533 614.4 28.194133 614.4h232.925867c15.7696 0 28.194133 20.957867 28.194133 47.581867 0 26.692267-12.424533 47.650133-28.194133 47.650133H28.194133z" p-id="2959"></path><path d="M115.370667 682.666667C89.088 682.666667 68.266667 668.125867 68.266667 649.6256V306.107733C68.266667 287.607467 89.019733 273.066667 115.370667 273.066667c26.487467 0 47.172267 14.5408 47.172266 33.041066v343.517867c0 18.500267-20.6848 33.041067-47.104 33.041067z m1015.330133-200.977067h-246.715733c-16.725333 0-29.832533-22.9376-29.832534-52.155733s13.1072-52.155733 29.832534-52.155734h246.715733c16.725333 0 29.832533 22.9376 29.832533 52.155734s-13.1072 52.155733-29.832533 52.155733z" p-id="2960"></path><path d="M978.397867 436.906667c-25.531733 0-45.602133-13.1072-45.602134-29.764267V97.962667c0-16.5888 20.0704-29.696 45.602134-29.696 25.531733 0 45.602133 13.1072 45.602133 29.696v309.179733c0 16.657067-20.0704 29.696-45.602133 29.696z m-232.789334 382.293333h-375.466666C353.8944 819.2 341.333333 794.624 341.333333 772.232533c0-22.3232 12.629333-46.8992 28.740267-46.8992h375.534933c16.1792 0 27.784533 24.576 27.784534 46.967467 0 22.3232-11.605333 46.8992-27.784534 46.8992z" p-id="2961"></path></svg>